%TF.GenerationSoftware,KiCad,Pcbnew,(6.0.10)*%
%TF.CreationDate,2023-02-23T16:05:32-08:00*%
%TF.ProjectId,lab4 Exercise 2,6c616234-2045-4786-9572-636973652032,rev?*%
%TF.SameCoordinates,Original*%
%TF.FileFunction,Legend,Top*%
%TF.FilePolarity,Positive*%
%FSLAX46Y46*%
G04 Gerber Fmt 4.6, Leading zero omitted, Abs format (unit mm)*
G04 Created by KiCad (PCBNEW (6.0.10)) date 2023-02-23 16:05:32*
%MOMM*%
%LPD*%
G01*
G04 APERTURE LIST*
%ADD10C,0.150000*%
%ADD11C,0.120000*%
G04 APERTURE END LIST*
D10*
%TO.C,J1*%
X152066666Y-95972380D02*
X152066666Y-96686666D01*
X152019047Y-96829523D01*
X151923809Y-96924761D01*
X151780952Y-96972380D01*
X151685714Y-96972380D01*
X153066666Y-96972380D02*
X152495238Y-96972380D01*
X152780952Y-96972380D02*
X152780952Y-95972380D01*
X152685714Y-96115238D01*
X152590476Y-96210476D01*
X152495238Y-96258095D01*
%TO.C,C2*%
X152233333Y-111257142D02*
X152185714Y-111304761D01*
X152042857Y-111352380D01*
X151947619Y-111352380D01*
X151804761Y-111304761D01*
X151709523Y-111209523D01*
X151661904Y-111114285D01*
X151614285Y-110923809D01*
X151614285Y-110780952D01*
X151661904Y-110590476D01*
X151709523Y-110495238D01*
X151804761Y-110400000D01*
X151947619Y-110352380D01*
X152042857Y-110352380D01*
X152185714Y-110400000D01*
X152233333Y-110447619D01*
X152614285Y-110447619D02*
X152661904Y-110400000D01*
X152757142Y-110352380D01*
X152995238Y-110352380D01*
X153090476Y-110400000D01*
X153138095Y-110447619D01*
X153185714Y-110542857D01*
X153185714Y-110638095D01*
X153138095Y-110780952D01*
X152566666Y-111352380D01*
X153185714Y-111352380D01*
%TO.C,R4*%
X137306269Y-101942380D02*
X136972936Y-101466190D01*
X136734840Y-101942380D02*
X136734840Y-100942380D01*
X137115793Y-100942380D01*
X137211031Y-100990000D01*
X137258650Y-101037619D01*
X137306269Y-101132857D01*
X137306269Y-101275714D01*
X137258650Y-101370952D01*
X137211031Y-101418571D01*
X137115793Y-101466190D01*
X136734840Y-101466190D01*
X138163412Y-101275714D02*
X138163412Y-101942380D01*
X137925316Y-100894761D02*
X137687221Y-101609047D01*
X138306269Y-101609047D01*
%TO.C,D2*%
X139901904Y-97502380D02*
X139901904Y-96502380D01*
X140140000Y-96502380D01*
X140282857Y-96550000D01*
X140378095Y-96645238D01*
X140425714Y-96740476D01*
X140473333Y-96930952D01*
X140473333Y-97073809D01*
X140425714Y-97264285D01*
X140378095Y-97359523D01*
X140282857Y-97454761D01*
X140140000Y-97502380D01*
X139901904Y-97502380D01*
X140854285Y-96597619D02*
X140901904Y-96550000D01*
X140997142Y-96502380D01*
X141235238Y-96502380D01*
X141330476Y-96550000D01*
X141378095Y-96597619D01*
X141425714Y-96692857D01*
X141425714Y-96788095D01*
X141378095Y-96930952D01*
X140806666Y-97502380D01*
X141425714Y-97502380D01*
%TO.C,R2*%
X141042380Y-108376666D02*
X140566190Y-108710000D01*
X141042380Y-108948095D02*
X140042380Y-108948095D01*
X140042380Y-108567142D01*
X140090000Y-108471904D01*
X140137619Y-108424285D01*
X140232857Y-108376666D01*
X140375714Y-108376666D01*
X140470952Y-108424285D01*
X140518571Y-108471904D01*
X140566190Y-108567142D01*
X140566190Y-108948095D01*
X140137619Y-107995714D02*
X140090000Y-107948095D01*
X140042380Y-107852857D01*
X140042380Y-107614761D01*
X140090000Y-107519523D01*
X140137619Y-107471904D01*
X140232857Y-107424285D01*
X140328095Y-107424285D01*
X140470952Y-107471904D01*
X141042380Y-108043333D01*
X141042380Y-107424285D01*
%TO.C,C1*%
X140847142Y-101766666D02*
X140894761Y-101814285D01*
X140942380Y-101957142D01*
X140942380Y-102052380D01*
X140894761Y-102195238D01*
X140799523Y-102290476D01*
X140704285Y-102338095D01*
X140513809Y-102385714D01*
X140370952Y-102385714D01*
X140180476Y-102338095D01*
X140085238Y-102290476D01*
X139990000Y-102195238D01*
X139942380Y-102052380D01*
X139942380Y-101957142D01*
X139990000Y-101814285D01*
X140037619Y-101766666D01*
X140942380Y-100814285D02*
X140942380Y-101385714D01*
X140942380Y-101100000D02*
X139942380Y-101100000D01*
X140085238Y-101195238D01*
X140180476Y-101290476D01*
X140228095Y-101385714D01*
%TO.C,R1*%
X161293333Y-103702380D02*
X160960000Y-103226190D01*
X160721904Y-103702380D02*
X160721904Y-102702380D01*
X161102857Y-102702380D01*
X161198095Y-102750000D01*
X161245714Y-102797619D01*
X161293333Y-102892857D01*
X161293333Y-103035714D01*
X161245714Y-103130952D01*
X161198095Y-103178571D01*
X161102857Y-103226190D01*
X160721904Y-103226190D01*
X162245714Y-103702380D02*
X161674285Y-103702380D01*
X161960000Y-103702380D02*
X161960000Y-102702380D01*
X161864761Y-102845238D01*
X161769523Y-102940476D01*
X161674285Y-102988095D01*
%TO.C,R3*%
X141846269Y-115667380D02*
X141512936Y-115191190D01*
X141274840Y-115667380D02*
X141274840Y-114667380D01*
X141655793Y-114667380D01*
X141751031Y-114715000D01*
X141798650Y-114762619D01*
X141846269Y-114857857D01*
X141846269Y-115000714D01*
X141798650Y-115095952D01*
X141751031Y-115143571D01*
X141655793Y-115191190D01*
X141274840Y-115191190D01*
X142179602Y-114667380D02*
X142798650Y-114667380D01*
X142465316Y-115048333D01*
X142608174Y-115048333D01*
X142703412Y-115095952D01*
X142751031Y-115143571D01*
X142798650Y-115238809D01*
X142798650Y-115476904D01*
X142751031Y-115572142D01*
X142703412Y-115619761D01*
X142608174Y-115667380D01*
X142322459Y-115667380D01*
X142227221Y-115619761D01*
X142179602Y-115572142D01*
%TO.C,U1*%
X151638095Y-97652380D02*
X151638095Y-98461904D01*
X151685714Y-98557142D01*
X151733333Y-98604761D01*
X151828571Y-98652380D01*
X152019047Y-98652380D01*
X152114285Y-98604761D01*
X152161904Y-98557142D01*
X152209523Y-98461904D01*
X152209523Y-97652380D01*
X153209523Y-98652380D02*
X152638095Y-98652380D01*
X152923809Y-98652380D02*
X152923809Y-97652380D01*
X152828571Y-97795238D01*
X152733333Y-97890476D01*
X152638095Y-97938095D01*
%TO.C,D1*%
X160621904Y-107052380D02*
X160621904Y-106052380D01*
X160860000Y-106052380D01*
X161002857Y-106100000D01*
X161098095Y-106195238D01*
X161145714Y-106290476D01*
X161193333Y-106480952D01*
X161193333Y-106623809D01*
X161145714Y-106814285D01*
X161098095Y-106909523D01*
X161002857Y-107004761D01*
X160860000Y-107052380D01*
X160621904Y-107052380D01*
X162145714Y-107052380D02*
X161574285Y-107052380D01*
X161860000Y-107052380D02*
X161860000Y-106052380D01*
X161764761Y-106195238D01*
X161669523Y-106290476D01*
X161574285Y-106338095D01*
D11*
%TO.C,J1*%
X147320000Y-95250000D02*
X157480000Y-95250000D01*
X147320000Y-87630000D02*
X147320000Y-95250000D01*
X147320000Y-88900000D02*
X157480000Y-88900000D01*
X157480000Y-95250000D02*
X157480000Y-87630000D01*
X157480000Y-87630000D02*
X147320000Y-87630000D01*
%TO.C,C2*%
X152661252Y-108485000D02*
X152138748Y-108485000D01*
X152661252Y-109955000D02*
X152138748Y-109955000D01*
%TO.C,R4*%
X137245872Y-103875000D02*
X137700000Y-103875000D01*
X137245872Y-102405000D02*
X137700000Y-102405000D01*
%TO.C,D2*%
X143100000Y-94095000D02*
X139040000Y-94095000D01*
X139040000Y-96365000D02*
X143100000Y-96365000D01*
X143100000Y-96365000D02*
X143100000Y-94095000D01*
%TO.C,R2*%
X142975000Y-108437064D02*
X142975000Y-107982936D01*
X141505000Y-108437064D02*
X141505000Y-107982936D01*
%TO.C,C1*%
X143175000Y-104085000D02*
X143175000Y-100000000D01*
X141305000Y-104085000D02*
X143175000Y-104085000D01*
X141305000Y-100000000D02*
X141305000Y-104085000D01*
%TO.C,R1*%
X161687064Y-102335000D02*
X161232936Y-102335000D01*
X161687064Y-100865000D02*
X161232936Y-100865000D01*
%TO.C,R3*%
X142240000Y-114300000D02*
X141785872Y-114300000D01*
X142240000Y-112830000D02*
X141785872Y-112830000D01*
%TO.C,U1*%
X152400000Y-99040000D02*
X154350000Y-99040000D01*
X152400000Y-104160000D02*
X150450000Y-104160000D01*
X152400000Y-104160000D02*
X154350000Y-104160000D01*
X152400000Y-99040000D02*
X148950000Y-99040000D01*
%TO.C,D1*%
X162960000Y-107285000D02*
X158900000Y-107285000D01*
X158900000Y-107285000D02*
X158900000Y-109555000D01*
X158900000Y-109555000D02*
X162960000Y-109555000D01*
%TD*%
M02*
