%TF.GenerationSoftware,KiCad,Pcbnew,(6.0.10)*%
%TF.CreationDate,2023-02-23T16:05:15-08:00*%
%TF.ProjectId,lab4 Exercise 2,6c616234-2045-4786-9572-636973652032,rev?*%
%TF.SameCoordinates,Original*%
%TF.FileFunction,Copper,L1,Top*%
%TF.FilePolarity,Positive*%
%FSLAX46Y46*%
G04 Gerber Fmt 4.6, Leading zero omitted, Abs format (unit mm)*
G04 Created by KiCad (PCBNEW (6.0.10)) date 2023-02-23 16:05:15*
%MOMM*%
%LPD*%
G01*
G04 APERTURE LIST*
G04 Aperture macros list*
%AMRoundRect*
0 Rectangle with rounded corners*
0 $1 Rounding radius*
0 $2 $3 $4 $5 $6 $7 $8 $9 X,Y pos of 4 corners*
0 Add a 4 corners polygon primitive as box body*
4,1,4,$2,$3,$4,$5,$6,$7,$8,$9,$2,$3,0*
0 Add four circle primitives for the rounded corners*
1,1,$1+$1,$2,$3*
1,1,$1+$1,$4,$5*
1,1,$1+$1,$6,$7*
1,1,$1+$1,$8,$9*
0 Add four rect primitives between the rounded corners*
20,1,$1+$1,$2,$3,$4,$5,0*
20,1,$1+$1,$4,$5,$6,$7,0*
20,1,$1+$1,$6,$7,$8,$9,0*
20,1,$1+$1,$8,$9,$2,$3,0*%
G04 Aperture macros list end*
%TA.AperFunction,ComponentPad*%
%ADD10R,3.000000X3.000000*%
%TD*%
%TA.AperFunction,ComponentPad*%
%ADD11C,3.000000*%
%TD*%
%TA.AperFunction,SMDPad,CuDef*%
%ADD12RoundRect,0.250000X0.337500X0.475000X-0.337500X0.475000X-0.337500X-0.475000X0.337500X-0.475000X0*%
%TD*%
%TA.AperFunction,SMDPad,CuDef*%
%ADD13RoundRect,0.250000X-0.350000X-0.450000X0.350000X-0.450000X0.350000X0.450000X-0.350000X0.450000X0*%
%TD*%
%TA.AperFunction,SMDPad,CuDef*%
%ADD14RoundRect,0.250001X0.462499X0.624999X-0.462499X0.624999X-0.462499X-0.624999X0.462499X-0.624999X0*%
%TD*%
%TA.AperFunction,SMDPad,CuDef*%
%ADD15RoundRect,0.250000X0.450000X-0.350000X0.450000X0.350000X-0.450000X0.350000X-0.450000X-0.350000X0*%
%TD*%
%TA.AperFunction,SMDPad,CuDef*%
%ADD16RoundRect,0.250000X0.425000X-0.537500X0.425000X0.537500X-0.425000X0.537500X-0.425000X-0.537500X0*%
%TD*%
%TA.AperFunction,SMDPad,CuDef*%
%ADD17RoundRect,0.250000X0.350000X0.450000X-0.350000X0.450000X-0.350000X-0.450000X0.350000X-0.450000X0*%
%TD*%
%TA.AperFunction,SMDPad,CuDef*%
%ADD18RoundRect,0.150000X-0.825000X-0.150000X0.825000X-0.150000X0.825000X0.150000X-0.825000X0.150000X0*%
%TD*%
%TA.AperFunction,SMDPad,CuDef*%
%ADD19R,2.290000X3.000000*%
%TD*%
%TA.AperFunction,SMDPad,CuDef*%
%ADD20RoundRect,0.250001X-0.462499X-0.624999X0.462499X-0.624999X0.462499X0.624999X-0.462499X0.624999X0*%
%TD*%
%TA.AperFunction,ViaPad*%
%ADD21C,0.800000*%
%TD*%
%TA.AperFunction,Conductor*%
%ADD22C,0.250000*%
%TD*%
G04 APERTURE END LIST*
D10*
%TO.P,J1,1,Pin_1*%
%TO.N,+9V*%
X154940000Y-91440000D03*
D11*
%TO.P,J1,2,Pin_2*%
%TO.N,GND*%
X149860000Y-91440000D03*
%TD*%
D12*
%TO.P,C2,1*%
%TO.N,Net-(C2-Pad1)*%
X153437500Y-109220000D03*
%TO.P,C2,2*%
%TO.N,GND*%
X151362500Y-109220000D03*
%TD*%
D13*
%TO.P,R4,1*%
%TO.N,/pin_3*%
X136472936Y-103140000D03*
%TO.P,R4,2*%
%TO.N,Net-(D2-Pad2)*%
X138472936Y-103140000D03*
%TD*%
D14*
%TO.P,D2,1,K*%
%TO.N,GND*%
X142127500Y-95230000D03*
%TO.P,D2,2,A*%
%TO.N,Net-(D2-Pad2)*%
X139152500Y-95230000D03*
%TD*%
D15*
%TO.P,R2,1*%
%TO.N,/pin_7*%
X142240000Y-109210000D03*
%TO.P,R2,2*%
%TO.N,/pin_2*%
X142240000Y-107210000D03*
%TD*%
D16*
%TO.P,C1,1*%
%TO.N,/pin_2*%
X142240000Y-103037500D03*
%TO.P,C1,2*%
%TO.N,GND*%
X142240000Y-100162500D03*
%TD*%
D17*
%TO.P,R1,1*%
%TO.N,+9V*%
X162460000Y-101600000D03*
%TO.P,R1,2*%
%TO.N,/pin_7*%
X160460000Y-101600000D03*
%TD*%
%TO.P,R3,1*%
%TO.N,Net-(D1-Pad1)*%
X143012936Y-113565000D03*
%TO.P,R3,2*%
%TO.N,/pin_3*%
X141012936Y-113565000D03*
%TD*%
D18*
%TO.P,U1,1,GND*%
%TO.N,GND*%
X149925000Y-99695000D03*
%TO.P,U1,2,TR*%
%TO.N,/pin_2*%
X149925000Y-100965000D03*
%TO.P,U1,3,Q*%
%TO.N,/pin_3*%
X149925000Y-102235000D03*
%TO.P,U1,4,R*%
%TO.N,+9V*%
X149925000Y-103505000D03*
%TO.P,U1,5,CV*%
%TO.N,Net-(C2-Pad1)*%
X154875000Y-103505000D03*
%TO.P,U1,6,THR*%
%TO.N,/pin_2*%
X154875000Y-102235000D03*
%TO.P,U1,7,DIS*%
%TO.N,/pin_7*%
X154875000Y-100965000D03*
%TO.P,U1,8,VCC*%
%TO.N,+9V*%
X154875000Y-99695000D03*
D19*
%TO.P,U1,9*%
%TO.N,N/C*%
X152400000Y-101600000D03*
%TD*%
D20*
%TO.P,D1,1,K*%
%TO.N,Net-(D1-Pad1)*%
X159872500Y-108420000D03*
%TO.P,D1,2,A*%
%TO.N,+9V*%
X162847500Y-108420000D03*
%TD*%
D21*
%TO.N,/pin_2*%
X142240000Y-110409500D03*
X154940000Y-106680000D03*
%TO.N,GND*%
X147320000Y-106680000D03*
X149860000Y-96520000D03*
%TO.N,/pin_7*%
X147320000Y-109220000D03*
X157480000Y-101600000D03*
%TO.N,/pin_3*%
X139700000Y-106680000D03*
X147320000Y-104140000D03*
%TD*%
D22*
%TO.N,/pin_2*%
X140889500Y-110409500D02*
X137885000Y-107405000D01*
X156780552Y-103763801D02*
X156780552Y-104839448D01*
X149925000Y-100965000D02*
X149469695Y-100965000D01*
X142240000Y-106680000D02*
X142240000Y-107210000D01*
X154875000Y-102235000D02*
X155251751Y-102235000D01*
X144312500Y-100965000D02*
X149925000Y-100965000D01*
X142240000Y-110409500D02*
X140889500Y-110409500D01*
X156780552Y-104839448D02*
X154940000Y-106680000D01*
X155251751Y-102235000D02*
X156780552Y-103763801D01*
X142240000Y-103037500D02*
X144312500Y-100965000D01*
X137885000Y-107405000D02*
X142045000Y-107405000D01*
X142240000Y-103037500D02*
X142240000Y-106680000D01*
X142045000Y-107405000D02*
X142240000Y-107210000D01*
%TO.N,GND*%
X149860000Y-91440000D02*
X149860000Y-96520000D01*
X149860000Y-109220000D02*
X147320000Y-106680000D01*
X142240000Y-100162500D02*
X142707500Y-99695000D01*
X151362500Y-109220000D02*
X149860000Y-109220000D01*
X149860000Y-96520000D02*
X149860000Y-99630000D01*
X142707500Y-99695000D02*
X149925000Y-99695000D01*
X142127500Y-100050000D02*
X142240000Y-100162500D01*
X149860000Y-99630000D02*
X149925000Y-99695000D01*
X142127500Y-95230000D02*
X142127500Y-100050000D01*
%TO.N,Net-(C2-Pad1)*%
X153437500Y-105642500D02*
X154940000Y-104140000D01*
X154940000Y-104140000D02*
X154940000Y-103570000D01*
X154940000Y-103570000D02*
X154875000Y-103505000D01*
X153437500Y-109220000D02*
X153437500Y-105642500D01*
%TO.N,Net-(D1-Pad1)*%
X143012936Y-113565000D02*
X144817936Y-111760000D01*
X144817936Y-111760000D02*
X156532500Y-111760000D01*
X156532500Y-111760000D02*
X159872500Y-108420000D01*
%TO.N,+9V*%
X149925000Y-103505000D02*
X149469695Y-103505000D01*
X147019695Y-105955000D02*
X146595000Y-106379695D01*
X162460000Y-108032500D02*
X162847500Y-108420000D01*
X155510000Y-99060000D02*
X162560000Y-99060000D01*
X155731948Y-110968052D02*
X157480000Y-109220000D01*
X147320000Y-105654695D02*
X147320000Y-105955000D01*
X146595000Y-106379695D02*
X146595000Y-106980305D01*
X162560000Y-99060000D02*
X162560000Y-101500000D01*
X162560000Y-101500000D02*
X162460000Y-101600000D01*
X150582747Y-110968052D02*
X155731948Y-110968052D01*
X149469695Y-103505000D02*
X147320000Y-105654695D01*
X157480000Y-104140000D02*
X162560000Y-104140000D01*
X147320000Y-105955000D02*
X147019695Y-105955000D01*
X157480000Y-109220000D02*
X157480000Y-104140000D01*
X154940000Y-91440000D02*
X154940000Y-99630000D01*
X154875000Y-99695000D02*
X155510000Y-99060000D01*
X154940000Y-99630000D02*
X154875000Y-99695000D01*
X162460000Y-101600000D02*
X162460000Y-108032500D01*
X146595000Y-106980305D02*
X150582747Y-110968052D01*
%TO.N,Net-(D2-Pad2)*%
X139152500Y-102460436D02*
X138472936Y-103140000D01*
X139152500Y-95230000D02*
X139152500Y-102460436D01*
%TO.N,/pin_7*%
X142240000Y-109210000D02*
X147310000Y-109210000D01*
X157480000Y-101600000D02*
X155510000Y-101600000D01*
X147310000Y-109210000D02*
X147320000Y-109220000D01*
X155510000Y-101600000D02*
X154875000Y-100965000D01*
X160460000Y-101600000D02*
X157480000Y-101600000D01*
%TO.N,/pin_3*%
X137160000Y-106680000D02*
X139700000Y-106680000D01*
X136472936Y-105992936D02*
X137160000Y-106680000D01*
X136472936Y-105992936D02*
X136472936Y-109025000D01*
X149225000Y-102235000D02*
X149925000Y-102235000D01*
X147320000Y-104140000D02*
X149225000Y-102235000D01*
X136472936Y-109025000D02*
X141012936Y-113565000D01*
X136472936Y-103140000D02*
X136472936Y-105992936D01*
%TD*%
M02*
