%TF.GenerationSoftware,KiCad,Pcbnew,(6.0.10)*%
%TF.CreationDate,2023-02-23T16:01:06-08:00*%
%TF.ProjectId,lab4 Exercise 1,6c616234-2045-4786-9572-636973652031,rev?*%
%TF.SameCoordinates,Original*%
%TF.FileFunction,Legend,Top*%
%TF.FilePolarity,Positive*%
%FSLAX46Y46*%
G04 Gerber Fmt 4.6, Leading zero omitted, Abs format (unit mm)*
G04 Created by KiCad (PCBNEW (6.0.10)) date 2023-02-23 16:01:06*
%MOMM*%
%LPD*%
G01*
G04 APERTURE LIST*
%ADD10C,0.150000*%
%ADD11C,0.120000*%
G04 APERTURE END LIST*
D10*
%TO.C,D1*%
X120952380Y-88368095D02*
X119952380Y-88368095D01*
X119952380Y-88130000D01*
X120000000Y-87987142D01*
X120095238Y-87891904D01*
X120190476Y-87844285D01*
X120380952Y-87796666D01*
X120523809Y-87796666D01*
X120714285Y-87844285D01*
X120809523Y-87891904D01*
X120904761Y-87987142D01*
X120952380Y-88130000D01*
X120952380Y-88368095D01*
X120952380Y-86844285D02*
X120952380Y-87415714D01*
X120952380Y-87130000D02*
X119952380Y-87130000D01*
X120095238Y-87225238D01*
X120190476Y-87320476D01*
X120238095Y-87415714D01*
%TO.C,SW1*%
X159766666Y-92254761D02*
X159909523Y-92302380D01*
X160147619Y-92302380D01*
X160242857Y-92254761D01*
X160290476Y-92207142D01*
X160338095Y-92111904D01*
X160338095Y-92016666D01*
X160290476Y-91921428D01*
X160242857Y-91873809D01*
X160147619Y-91826190D01*
X159957142Y-91778571D01*
X159861904Y-91730952D01*
X159814285Y-91683333D01*
X159766666Y-91588095D01*
X159766666Y-91492857D01*
X159814285Y-91397619D01*
X159861904Y-91350000D01*
X159957142Y-91302380D01*
X160195238Y-91302380D01*
X160338095Y-91350000D01*
X160671428Y-91302380D02*
X160909523Y-92302380D01*
X161100000Y-91588095D01*
X161290476Y-92302380D01*
X161528571Y-91302380D01*
X162433333Y-92302380D02*
X161861904Y-92302380D01*
X162147619Y-92302380D02*
X162147619Y-91302380D01*
X162052380Y-91445238D01*
X161957142Y-91540476D01*
X161861904Y-91588095D01*
%TO.C,J1*%
X129972380Y-90773333D02*
X130686666Y-90773333D01*
X130829523Y-90820952D01*
X130924761Y-90916190D01*
X130972380Y-91059047D01*
X130972380Y-91154285D01*
X130972380Y-89773333D02*
X130972380Y-90344761D01*
X130972380Y-90059047D02*
X129972380Y-90059047D01*
X130115238Y-90154285D01*
X130210476Y-90249523D01*
X130258095Y-90344761D01*
%TO.C,C1*%
X141387142Y-88066666D02*
X141434761Y-88114285D01*
X141482380Y-88257142D01*
X141482380Y-88352380D01*
X141434761Y-88495238D01*
X141339523Y-88590476D01*
X141244285Y-88638095D01*
X141053809Y-88685714D01*
X140910952Y-88685714D01*
X140720476Y-88638095D01*
X140625238Y-88590476D01*
X140530000Y-88495238D01*
X140482380Y-88352380D01*
X140482380Y-88257142D01*
X140530000Y-88114285D01*
X140577619Y-88066666D01*
X141482380Y-87114285D02*
X141482380Y-87685714D01*
X141482380Y-87400000D02*
X140482380Y-87400000D01*
X140625238Y-87495238D01*
X140720476Y-87590476D01*
X140768095Y-87685714D01*
%TO.C,R2*%
X144613333Y-98432380D02*
X144280000Y-97956190D01*
X144041904Y-98432380D02*
X144041904Y-97432380D01*
X144422857Y-97432380D01*
X144518095Y-97480000D01*
X144565714Y-97527619D01*
X144613333Y-97622857D01*
X144613333Y-97765714D01*
X144565714Y-97860952D01*
X144518095Y-97908571D01*
X144422857Y-97956190D01*
X144041904Y-97956190D01*
X144994285Y-97527619D02*
X145041904Y-97480000D01*
X145137142Y-97432380D01*
X145375238Y-97432380D01*
X145470476Y-97480000D01*
X145518095Y-97527619D01*
X145565714Y-97622857D01*
X145565714Y-97718095D01*
X145518095Y-97860952D01*
X144946666Y-98432380D01*
X145565714Y-98432380D01*
%TO.C,R1*%
X142073333Y-75572380D02*
X141740000Y-75096190D01*
X141501904Y-75572380D02*
X141501904Y-74572380D01*
X141882857Y-74572380D01*
X141978095Y-74620000D01*
X142025714Y-74667619D01*
X142073333Y-74762857D01*
X142073333Y-74905714D01*
X142025714Y-75000952D01*
X141978095Y-75048571D01*
X141882857Y-75096190D01*
X141501904Y-75096190D01*
X143025714Y-75572380D02*
X142454285Y-75572380D01*
X142740000Y-75572380D02*
X142740000Y-74572380D01*
X142644761Y-74715238D01*
X142549523Y-74810476D01*
X142454285Y-74858095D01*
D11*
%TO.C,D1*%
X122915000Y-90190000D02*
X126005000Y-90190000D01*
X124460462Y-84640000D02*
G75*
G03*
X122915170Y-90190000I-462J-2990000D01*
G01*
X126004830Y-90190000D02*
G75*
G03*
X124459538Y-84640000I-1544830J2560000D01*
G01*
X126960000Y-87630000D02*
G75*
G03*
X126960000Y-87630000I-2500000J0D01*
G01*
%TO.C,SW1*%
X154100000Y-90250000D02*
X154100000Y-85050000D01*
X168100000Y-85050000D02*
X168100000Y-90250000D01*
X166050000Y-91000000D02*
X156150000Y-91000000D01*
X168400000Y-91950000D02*
X167100000Y-91950000D01*
X168400000Y-90650000D02*
X168400000Y-91950000D01*
X156150000Y-84300000D02*
X166050000Y-84300000D01*
%TO.C,J1*%
X135720000Y-90440000D02*
X135220000Y-90440000D01*
X134220000Y-87380000D02*
X134220000Y-87990000D01*
X135720000Y-92890000D02*
X135720000Y-87990000D01*
X131510000Y-91740000D02*
X131510000Y-92040000D01*
X131610000Y-90940000D02*
X132220000Y-90940000D01*
X131310000Y-92550000D02*
X131310000Y-93800000D01*
X134220000Y-93500000D02*
X134220000Y-92890000D01*
X132220000Y-89940000D02*
X131610000Y-89940000D01*
X135220000Y-90540000D02*
X135220000Y-90340000D01*
X131310000Y-93800000D02*
X132560000Y-93800000D01*
X132220000Y-87990000D02*
X132220000Y-89940000D01*
X132220000Y-92890000D02*
X135720000Y-92890000D01*
X136330000Y-87380000D02*
X131610000Y-87380000D01*
X131410000Y-92040000D02*
X131610000Y-92040000D01*
X135220000Y-90340000D02*
X135720000Y-90340000D01*
X131610000Y-87380000D02*
X131610000Y-93500000D01*
X132220000Y-90940000D02*
X132220000Y-92890000D01*
X136330000Y-93500000D02*
X136330000Y-87380000D01*
X135720000Y-90540000D02*
X135220000Y-90540000D01*
X135720000Y-87990000D02*
X132220000Y-87990000D01*
X132920000Y-87380000D02*
X132920000Y-87990000D01*
X132920000Y-93500000D02*
X132920000Y-92890000D01*
X131610000Y-91740000D02*
X131410000Y-91740000D01*
X131410000Y-91740000D02*
X131410000Y-92040000D01*
X131610000Y-93500000D02*
X136330000Y-93500000D01*
%TO.C,C1*%
X147400000Y-87900000D02*
G75*
G03*
X147400000Y-87900000I-2620000J0D01*
G01*
%TO.C,R2*%
X136910000Y-104220000D02*
X152650000Y-104220000D01*
X153500000Y-101600000D02*
X152650000Y-101600000D01*
X152650000Y-98980000D02*
X136910000Y-98980000D01*
X136060000Y-101600000D02*
X136910000Y-101600000D01*
X152650000Y-104220000D02*
X152650000Y-98980000D01*
X136910000Y-98980000D02*
X136910000Y-104220000D01*
%TO.C,R1*%
X150960000Y-78740000D02*
X150110000Y-78740000D01*
X134370000Y-81360000D02*
X150110000Y-81360000D01*
X134370000Y-76120000D02*
X134370000Y-81360000D01*
X150110000Y-76120000D02*
X134370000Y-76120000D01*
X150110000Y-81360000D02*
X150110000Y-76120000D01*
X133520000Y-78740000D02*
X134370000Y-78740000D01*
%TD*%
M02*
